Coordinates
version=1
nRows=15
nColumns=34
inDegrees=yes

Units are S.I. units (second, meters, Newtons, ...)
If the header above contains a line with 'inDegrees', this indicates whether rotational values are in degrees (yes) or radians (no).

endheader
time	pelvis_tilt	pelvis_list	pelvis_rotation	pelvis_tx	pelvis_ty	pelvis_tz	hip_flexion_r	hip_adduction_r	hip_rotation_r	knee_angle_r	ankle_angle_r	subtalar_angle_r	mtp_angle_r	hip_flexion_l	hip_adduction_l	hip_rotation_l	knee_angle_l	ankle_angle_l	subtalar_angle_l	mtp_angle_l	lumbar_extension	lumbar_bending	lumbar_rotation	arm_flex_r	arm_add_r	arm_rot_r	elbow_flex_r	pro_sup_r	arm_flex_l	arm_add_l	arm_rot_l	elbow_flex_l	pro_sup_l
      3.81666670	    -20.42127190	      1.96480897	      3.98571987	      0.74077256	      0.78213580	     -0.05305157	     65.29525804	    -10.11467498	     -0.81057995	     59.68684356	      7.04134550	    -33.74686027	      0.00000000	     63.22183295	     -6.57224587	     -3.98066621	     55.52434931	     12.62219018	    -18.31890643	      0.00000000	     -7.71034702	     -2.61791064	     -0.68198655	    102.35592127	    -17.43167352	     49.84047243	     31.58304644	     60.46284947	     97.70863691	    -14.42334216	     43.80832577	     34.57287576	     42.71784235
      3.83333330	    -20.06454777	      2.04002643	      3.90463598	      0.75048002	      0.79308153	     -0.05246524	     63.08451235	    -10.05096176	     -1.15819342	     57.58860515	      6.37919955	    -33.71938015	      0.00000000	     60.99088458	     -6.38875820	     -4.06570006	     53.06447797	     12.17768820	    -17.99756720	      0.00000000	     -6.76035400	     -2.66592974	     -0.58223515	    100.23267355	    -17.31657749	     50.16351626	     31.42896828	     60.56777556	     95.67971742	    -14.16942833	     44.11580822	     34.13191757	     42.83984116
      3.85000000	    -19.39587977	      2.09682087	      3.70465130	      0.75419199	      0.80169499	     -0.05186377	     60.70396404	     -9.76541623	     -1.35696742	     55.53228793	      4.40621464	    -35.00000000	      0.00000000	     58.57269984	     -6.31939566	     -4.14314009	     50.85311103	     11.93222539	    -17.62621217	      0.00000000	     -6.30784279	     -2.81196471	     -0.20719402	     97.62620703	    -17.69806753	     48.19177647	     32.17299019	     61.18224136	     93.78724496	    -13.13400071	     42.78137975	     33.12666783	     44.11560442
      3.86666670	    -19.07002220	      2.13107900	      3.66692986	      0.75888851	      0.80915513	     -0.05261730	     58.85060329	     -9.65789689	     -1.56190694	     53.58419910	      4.40299065	    -35.00000000	      0.00000000	     56.63583442	     -6.11455224	     -4.17388363	     48.76526661	     11.44986855	    -17.21686482	      0.00000000	     -5.37320981	     -2.75617069	     -0.04744316	     95.61142862	    -17.67180972	     48.46937938	     32.02005421	     61.25592386	     91.61881130	    -12.80772088	     43.15868076	     33.02572713	     44.23238197
      3.88333330	    -18.03902308	      2.00519327	      3.71983106	      0.76185751	      0.82034229	     -0.05188003	     55.98533445	     -9.38984948	     -1.90687547	     51.24358496	      4.17365097	    -35.00000000	      0.00000000	     54.06981084	     -6.05933437	     -4.08905088	     46.65125169	     10.69776907	    -17.05091580	      0.00000000	     -5.44973081	     -2.74072839	      0.24114346	     92.99779500	    -18.34479036	     45.85650639	     33.22559442	     61.64878618	     89.48722134	    -12.04011115	     41.59275635	     33.70047912	     45.52692554
      3.90000000	    -17.67540089	      1.96316237	      3.75620667	      0.76374672	      0.82510254	     -0.05234514	     54.33080331	     -9.36009957	     -2.28851003	     49.39905123	      3.35941753	    -35.00000000	      0.00000000	     52.54209075	     -5.98753547	     -4.22792343	     44.87316689	      9.84977728	    -16.80263526	      0.00000000	     -4.61287466	     -2.65427374	      0.63752388	     91.30880956	    -18.51250152	     45.90029533	     32.73699176	     61.73629609	     87.52163635	    -11.50606637	     41.94298567	     33.71222751	     45.74477224
      3.91666670	    -17.38947100	      1.90293937	      3.78490624	      0.76721947	      0.83242962	     -0.05260063	     52.78618430	     -9.24676828	     -2.56559917	     47.55655162	      2.86068170	    -35.00000000	      0.00000000	     50.96679176	     -5.77528541	     -4.05030334	     43.00859362	      9.38884578	    -16.66512298	      0.00000000	     -3.87621104	     -2.41507462	      0.85690019	     89.74802110	    -18.63036872	     45.97656019	     32.40562404	     61.78215871	     85.93785486	    -11.29421793	     42.25566668	     33.54027829	     45.88620066
      3.93333330	    -16.44449524	      1.60864736	      3.88841571	      0.77232284	      0.84063190	     -0.05272944	     50.20916807	     -8.95441968	     -3.12870356	     45.28070375	      2.26283085	    -35.00000000	      0.00000000	     48.74343756	     -5.75831410	     -3.56259171	     41.18925035	      8.66984882	    -16.89394399	      0.00000000	     -3.98248855	     -1.91852303	      1.04520005	     88.43148789	    -18.66048434	     45.10612189	     31.89651588	     61.86769278	     84.75534548	    -10.79453730	     42.63652584	     32.96632127	     46.51046618
      3.95000000	    -16.27604010	      1.52723358	      3.99541836	      0.77846385	      0.84518226	     -0.05240548	     48.61087747	     -8.78401108	     -3.34834351	     43.42591297	      2.25782523	    -35.00000000	      0.00000000	     47.30350800	     -5.63139898	     -3.41236312	     39.58907670	      8.38147816	    -16.66901012	      0.00000000	     -3.01101192	     -1.79300699	      1.07572317	     86.75041924	    -18.65156408	     45.27420077	     31.65584803	     61.90500364	     83.24576242	    -10.72762773	     42.99540508	     32.71576856	     46.62694749
      3.96666670	    -15.47963493	      1.13058707	      4.24988023	      0.78160108	      0.85444810	     -0.05379387	     46.04957086	     -8.44502147	     -3.97977380	     41.10223784	      1.67938325	    -35.00000000	      0.00000000	     45.21309569	     -5.60639628	     -2.86242658	     37.82135823	      7.87455016	    -16.68929218	      0.00000000	     -3.03962483	     -1.20005771	      0.93792018	     85.30575431	    -18.57323377	     44.44686641	     31.59939546	     61.92566427	     82.09150829	    -10.47133836	     43.70305960	     32.23969373	     47.24535742
      3.98333330	    -14.83603923	      0.94861079	      4.19186619	      0.78373980	      0.86173349	     -0.05351885	     43.86659023	     -8.10135996	     -4.35224346	     38.91565357	      0.86348024	    -34.92021346	      0.00000000	     43.22209653	     -5.63331825	     -2.75224342	     35.79066152	      6.96550168	    -16.78993531	      0.00000000	     -2.80324846	     -0.89886558	      1.06754191	     83.59397071	    -18.56271792	     43.72778093	     31.66298587	     61.96486751	     80.66786151	    -10.28443578	     44.24565484	     32.14307497	     47.84094195
      4.00000000	    -14.64527786	      0.86225784	      4.08740308	      0.78948394	      0.86590894	     -0.05421303	     42.35188759	     -7.83264251	     -4.48353271	     37.06170708	      0.64090033	    -34.64842749	      0.00000000	     41.75143174	     -5.60128994	     -2.64888424	     34.05101634	      6.69930812	    -16.62419215	      0.00000000	     -1.86205226	     -0.78005762	      1.12305449	     81.73469972	    -18.45646271	     43.94763401	     31.49267909	     61.99596983	     78.92115059	    -10.17866191	     44.60369289	     31.97548479	     47.93730871
      4.01666670	    -13.83222314	      0.57063688	      3.97343313	      0.79268397	      0.87053615	     -0.05439515	     40.06048573	     -7.43932210	     -5.05247974	     34.96577415	      0.26010370	    -34.08198391	      0.00000000	     39.85087216	     -5.75562328	     -2.29296986	     32.62991215	      6.11914526	    -16.68185657	      0.00000000	     -1.92104405	     -0.25303778	      1.15447008	     80.27286384	    -18.25210487	     43.36800635	     31.62607845	     61.97865420	     77.68742320	    -10.10670087	     44.92861046	     31.99096582	     48.36216619
      4.03333330	    -13.47808860	      0.48940320	      3.88019938	      0.79420609	      0.87750155	     -0.05570089	     38.32206282	     -7.26297463	     -5.43581192	     32.86286000	     -0.15950741	    -33.44800279	      0.00000000	     38.39949883	     -5.72775369	     -2.40730616	     30.96091972	      5.32168675	    -16.56737969	      0.00000000	     -1.36312890	     -0.09465317	      1.15638126	     78.59874098	    -18.10369602	     43.27590159	     31.52839570	     61.99417238	     76.15409882	    -10.02556589	     45.22686525	     32.00043891	     48.59677458
      4.05000000	    -12.70794081	      0.45753230	      3.66292814	      0.79980700	      0.88470937	     -0.05552373	     36.10827811	     -7.07354630	     -5.90256190	     30.71834784	     -0.71454602	    -32.70747681	      0.00000000	     36.23832569	     -5.66893803	     -2.14181413	     29.10034453	      4.40549757	    -16.71952963	      0.00000000	     -1.28616407	      0.15380530	      1.29818724	     76.78376490	    -18.00217093	     42.65807429	     31.78143255	     61.98567005	     74.29808635	    -10.21753289	     45.25350369	     32.62058735	     49.06642981
